<svg width="202" height="65" viewBox="0 0 202 65" fill="none" xmlns="http://www.w3.org/2000/svg">
<path d="M9.88641 62.7671C7.98274 62.7753 6.15357 62.0243 4.80014 60.6789C3.44671 59.3334 2.67953 57.5035 2.66687 55.5904V7.89405C2.68182 5.98205 3.44987 4.15388 4.80293 2.80966C6.15598 1.46544 7.98384 0.714668 9.88641 0.721667H66.4852V62.7671H9.88641Z" fill="#FAFAFA"/>
<path d="M193.843 0.149902H66.4851V0.198653H8.48139C6.50155 0.190396 4.59927 0.967768 3.19185 2.36024C1.78442 3.75271 0.986769 5.64658 0.973877 7.62639V56.6867C0.990272 58.6638 1.78961 60.5538 3.19678 61.9427C4.60396 63.3316 6.50425 64.1062 8.48139 64.0967H66.4851V64.1499H201.115V7.1256C201.115 3.26991 197.858 0.149902 193.843 0.149902ZM9.23481 62.3949C8.41964 62.4007 7.61131 62.2459 6.85601 61.9392C6.10072 61.6325 5.41326 61.1799 4.83294 60.6074C4.25262 60.0349 3.7908 59.3537 3.47388 58.6026C3.15696 57.8516 2.99115 57.0454 2.98593 56.2302V8.08287C2.99057 7.26732 3.15595 6.46069 3.47261 5.70911C3.78927 4.95754 4.25099 4.27576 4.83137 3.70279C5.41175 3.12982 6.0994 2.67689 6.85499 2.36991C7.61057 2.06293 8.41927 1.90793 9.23481 1.91377H66.4851V62.3949H9.23481Z" fill="#2A4DDD"/>
<path d="M101.359 36.2073V44.1846H77.6666V12.5192H86.61V36.2073H101.359Z" fill="#FAFAFA"/>
<path d="M121.302 36.1762L126.058 40.9759C123.993 43.0854 120.044 44.5656 116.503 44.5656C109.102 44.5656 103.899 39.4956 103.899 32.3648C103.899 25.234 108.969 20.297 116.144 20.297C123.589 20.297 127.986 25.5442 127.986 34.4788H111.588C112.257 36.6947 113.963 38.1129 116.162 38.1129C118.041 38.0499 119.848 37.3692 121.302 36.1762V36.1762ZM111.69 29.9406H120.11C119.481 28.0128 118.001 26.7586 116.122 26.7586C114.079 26.7586 112.465 28.0128 111.69 29.9406Z" fill="#FAFAFA"/>
<path d="M155.636 20.8376V41.5609C155.636 47.5261 150.162 51.7541 142.451 51.7541C138.143 51.7541 134.106 50.4511 131.642 48.6518L134.465 42.6866C135.794 43.8078 138.502 44.5701 141.059 44.5701C144.512 44.5701 146.936 43.0898 146.936 41.1133V39.2785C146.006 40.2422 144.891 41.009 143.658 41.5336C142.426 42.0581 141.101 42.3296 139.761 42.332C134.15 42.332 129.71 37.7539 129.714 31.2968C129.718 24.8396 134.146 20.3058 139.761 20.3058C142.54 20.3058 145.5 21.6088 146.936 23.4081V20.8376H155.636ZM146.936 31.3012C146.936 29.0587 145.186 27.4898 142.766 27.4898C140.346 27.4898 138.591 29.0587 138.591 31.3012C138.591 33.5437 140.342 35.1569 142.766 35.1569C145.19 35.1569 146.936 33.5171 146.936 31.3012Z" fill="#FAFAFA"/>
<path d="M168.51 41.0512L171.741 35.8039C173.984 37.3728 177.303 38.5384 179.767 38.5384C181.385 38.5384 181.983 38.1351 181.983 37.3728C181.983 36.6105 180.653 36.1186 178.486 35.671C174.272 34.7846 169.561 33.7431 169.561 28.2698C169.561 23.7848 173.195 20.2925 179.249 20.2925C182.704 20.357 186.068 21.4173 188.937 23.3461L186.003 28.6421C184.075 27.3834 181.429 26.1736 179.231 26.1736C178.021 26.1736 177.214 26.8029 177.214 27.4765C177.214 28.2388 178.243 28.3629 180.578 28.9124C184.793 29.852 189.637 31.2436 189.637 36.7124C189.637 41.5121 185.825 44.5656 179.545 44.5656C175.508 44.5656 171.338 43.2671 168.51 41.0512Z" fill="#FAFAFA"/>
<path d="M162.722 20.882C163.654 20.8829 164.561 21.1856 165.306 21.7449C166.051 22.3041 166.596 23.0898 166.857 23.9843C166.857 24.0463 166.893 24.1039 166.906 24.166C166.971 24.4571 167.005 24.7542 167.008 25.0524V25.2341C167.006 24.9268 166.97 24.6206 166.901 24.3211C166.715 23.5314 166.314 22.8087 165.742 22.233C165.17 21.6573 164.45 21.2511 163.662 21.0593C163.354 20.9877 163.038 20.952 162.722 20.9529C162.397 20.952 162.073 20.9877 161.756 21.0593C160.96 21.2396 160.23 21.6384 159.649 22.2107C159.067 22.783 158.657 23.5061 158.463 24.2989C158.387 24.6049 158.349 24.9188 158.348 25.2341V25.0524C158.349 24.8237 158.369 24.5955 158.406 24.3699C158.406 24.2989 158.437 24.2236 158.454 24.1483L158.508 23.9621L162.722 20.882Z" fill="#FAFAFA"/>
<path d="M162.722 29.6127C161.562 29.6116 160.451 29.1503 159.63 28.3302C158.81 27.5102 158.349 26.3983 158.348 25.2385V43.9807H167.008V25.2385C167.007 25.5593 166.97 25.8789 166.897 26.1914C166.689 27.149 166.164 28.0082 165.406 28.6293C164.648 29.2504 163.702 29.597 162.722 29.6127V29.6127Z" fill="#FAFAFA"/>
<path d="M59.9571 32.6972L41.9063 50.748C41.0367 51.3877 39.9667 51.6946 38.8903 51.6133C37.8139 51.532 36.8022 51.0678 36.0385 50.3049L5.81348 20.0798L12.018 13.8752C12.918 13.1099 14.0608 12.6897 15.2422 12.6897C16.4235 12.6897 17.5664 13.1099 18.4663 13.8752L40.2266 35.6355L51.5499 24.2945C51.8551 23.9889 52.1958 23.7211 52.5648 23.4967C53.523 22.9156 54.6237 22.612 55.7443 22.6198C56.8649 22.6277 57.9613 22.9466 58.9112 23.5411C59.2893 23.7831 59.6399 24.0654 59.9571 24.3831C60.2627 24.6889 60.5333 25.0278 60.7637 25.3936C61.3433 26.3459 61.6477 27.4402 61.643 28.555C61.6383 29.6698 61.3247 30.7615 60.7371 31.7089C60.5166 32.0677 60.2548 32.3994 59.9571 32.6972V32.6972Z" fill="#2A4DDD"/>
<path d="M59.957 32.6972C59.6534 33.0073 59.316 33.2823 58.951 33.5171C57.8154 34.2586 56.4596 34.5877 55.1103 34.4494C53.7611 34.3111 52.5003 33.7138 51.5386 32.7574C50.577 31.8009 49.9729 30.5433 49.8273 29.1949C49.6817 27.8464 50.0035 26.4889 50.7388 25.3492C50.9745 24.9663 51.2541 24.6123 51.572 24.2945C51.8772 23.9889 52.2179 23.7211 52.5869 23.4967C53.5451 22.9156 54.6458 22.612 55.7664 22.6198C56.887 22.6276 57.9833 22.9466 58.9333 23.541C59.3114 23.7831 59.662 24.0654 59.9792 24.3831C60.2848 24.6889 60.5554 25.0278 60.7858 25.3936C61.3654 26.3459 61.6698 27.4402 61.6651 28.555C61.6604 29.6698 61.3468 30.7615 60.7592 31.7089C60.5317 32.0688 60.2625 32.4006 59.957 32.6972V32.6972Z" fill="#2A4DDD"/>
<path d="M167.043 25.203C167.043 25.3882 167.031 25.5732 167.008 25.757C166.991 25.8926 166.967 26.0272 166.937 26.1603C166.79 26.8172 166.497 27.4324 166.078 27.9597C165.66 28.487 165.128 28.9127 164.522 29.205C164.378 29.2728 164.23 29.3306 164.078 29.3778C163.88 29.4515 163.675 29.5078 163.467 29.5462C163.218 29.5909 162.966 29.6132 162.713 29.6127C162.326 29.6129 161.94 29.5622 161.566 29.462C161.329 29.4006 161.099 29.3176 160.879 29.2138C160.656 29.1127 160.444 28.9911 160.245 28.8504C159.324 28.2249 158.672 27.2756 158.419 26.1913C158.384 26.0452 158.357 25.8972 158.339 25.7481C158.316 25.5733 158.304 25.3971 158.304 25.2208C158.304 24.9026 158.342 24.5856 158.419 24.2768L158.446 24.1704L158.499 23.9843C158.733 23.2416 159.158 22.5737 159.732 22.0477C160.306 21.5218 161.009 21.1564 161.769 20.9884C162.09 20.9192 162.417 20.8836 162.744 20.882C163.676 20.8829 164.583 21.1856 165.328 21.7449C166.074 22.3041 166.618 23.0898 166.879 23.9843C166.879 24.0463 166.915 24.1039 166.928 24.166C166.94 24.2038 166.951 24.2423 166.959 24.2812C167.023 24.5842 167.051 24.8935 167.043 25.203V25.203Z" fill="#FFCF64"/>
</svg>
